<?xml version="1.0" standalone="no"?>
<!DOCTYPE svg PUBLIC "-//W3C//DTD SVG 20010904//EN"
 "http://www.w3.org/TR/2001/REC-SVG-20010904/DTD/svg10.dtd">
<svg version="1.0" xmlns="http://www.w3.org/2000/svg"
 width="1024.000000pt" height="1024.000000pt" viewBox="0 0 1024.000000 1024.000000"
 preserveAspectRatio="xMidYMid meet">
<metadata>
Created by potrace 1.14, written by Peter Selinger 2001-2017
</metadata>
<g transform="translate(0.000000,1024.000000) scale(0.100000,-0.100000)"
fill="#000000" stroke="none">
<path d="M5968 7583 c-38 -24 -44 -41 -52 -153 -7 -97 -16 -157 -32 -217 -9
-32 -17 -66 -19 -76 -2 -11 -21 -54 -42 -98 -34 -73 -40 -79 -68 -80 -16 0
-41 -2 -55 -4 -14 -1 -97 -6 -185 -10 -88 -4 -178 -8 -200 -9 -22 -2 -65 4
-95 12 -75 19 -206 11 -258 -16 -41 -21 -124 -22 -162 -2 -11 6 -20 8 -20 6 0
-3 -44 11 -97 30 -54 19 -108 38 -120 41 -13 3 -23 9 -23 12 0 4 -6 8 -12 8
-27 1 -219 100 -353 183 -54 33 -76 44 -125 58 -25 8 -172 8 -210 0 -129 -25
-177 -45 -231 -97 -47 -46 -49 -49 -46 -98 4 -62 39 -123 102 -182 26 -24 45
-44 43 -46 -2 -2 -52 -6 -113 -10 -189 -11 -376 -24 -445 -30 -25 -3 -79 -7
-121 -10 -77 -5 -149 -11 -269 -20 -36 -3 -96 -7 -135 -10 -38 -3 -88 -8 -110
-10 -22 -3 -76 -7 -120 -9 -44 -3 -80 -6 -80 -6 0 -1 -27 -3 -60 -5 -135 -8
-253 -15 -300 -20 -123 -11 -415 -25 -613 -29 -71 -1 -133 -5 -139 -9 -5 -4
-13 -4 -17 0 -9 9 -67 10 -98 2 -14 -4 -29 -5 -32 -2 -3 3 -63 7 -133 8 -162
4 -265 15 -330 36 -42 13 -48 9 -51 -37 -2 -21 -5 -40 -7 -43 -5 -5 -59 -4
-172 3 -56 3 -85 1 -89 -6 -4 -7 -2 -14 4 -16 7 -2 12 -10 12 -17 0 -7 3 -15
8 -17 11 -5 52 -66 52 -78 0 -5 5 -10 10 -10 6 0 10 -4 10 -9 0 -5 17 -38 38
-72 64 -105 112 -203 104 -211 -4 -4 -25 -10 -47 -14 -22 -3 -43 -8 -48 -11
-4 -2 -17 -6 -30 -9 -12 -2 -33 -6 -47 -9 -14 -3 -41 -8 -60 -11 -75 -15 -140
-76 -186 -174 -25 -55 -63 -183 -69 -232 -2 -18 -7 -62 -11 -98 -10 -78 -11
-379 -1 -470 14 -128 25 -200 48 -305 23 -104 46 -191 59 -220 5 -11 14 -38
21 -60 7 -22 25 -69 41 -105 16 -36 30 -67 30 -70 0 -3 9 -17 19 -32 10 -14
19 -31 19 -37 0 -6 5 -11 10 -11 6 0 10 -4 10 -10 0 -24 106 -137 154 -165 69
-40 103 -41 213 -5 54 17 105 33 113 35 8 2 16 4 18 5 1 2 5 3 10 4 4 1 36 11
72 23 36 11 106 33 155 48 50 15 100 31 113 36 20 8 22 6 22 -26 0 -19 3 -35
8 -35 4 0 8 -24 8 -53 1 -52 11 -172 14 -172 1 0 3 -29 5 -65 3 -65 38 -178
59 -192 6 -5 7 -8 1 -8 -14 0 76 -82 111 -100 16 -8 32 -19 36 -25 4 -5 8 -6
8 -1 0 5 6 4 12 -1 7 -5 36 -17 63 -27 28 -10 57 -20 65 -23 8 -3 22 -7 30 -9
18 -3 31 -7 88 -23 23 -6 59 -14 80 -16 20 -2 46 -6 58 -9 12 -2 45 -7 75 -11
30 -3 66 -8 81 -11 39 -6 209 -16 310 -18 49 0 88 -4 88 -8 0 -4 13 -3 29 2
16 4 32 6 35 3 9 -10 114 -8 109 1 -4 5 0 6 7 1 15 -9 114 -10 129 0 6 3 11 1
11 -5 0 -6 5 -8 10 -5 6 4 57 8 113 10 152 6 235 13 354 30 59 9 124 18 143
21 19 3 43 7 52 10 10 3 29 7 43 10 55 9 73 14 165 38 52 14 100 28 105 29 6
2 22 7 38 12 15 4 27 11 27 16 0 5 6 9 13 9 14 0 73 59 105 105 22 34 57 137
67 200 4 22 8 51 10 65 3 14 6 55 9 92 3 38 7 71 9 75 4 7 15 117 23 218 3 56
13 154 19 195 3 19 8 73 11 120 4 47 8 101 9 120 2 19 4 47 4 62 1 29 10 34
81 43 96 11 129 16 261 36 75 11 152 21 172 22 21 1 37 4 37 7 0 3 15 5 32 5
18 0 77 6 132 14 70 9 101 10 105 2 16 -26 166 -15 224 16 54 29 94 32 210 18
44 -6 68 -3 105 10 26 10 49 22 52 26 3 5 39 11 80 14 41 3 86 8 100 10 30 4
156 16 225 21 81 5 172 12 305 24 149 13 229 19 330 24 154 9 266 17 315 21
99 9 273 19 535 29 52 3 95 5 95 5 0 1 56 4 125 6 69 2 166 7 215 9 156 9 354
17 540 21 256 6 276 10 341 73 56 53 123 246 150 431 4 25 8 55 10 66 5 26 5
250 0 290 -22 183 -71 355 -147 521 -77 168 -265 433 -358 504 -37 29 -52 34
-106 36 -35 2 -92 -4 -127 -12 -64 -15 -322 -71 -368 -79 -14 -3 -34 -7 -45
-9 -11 -2 -42 -7 -69 -10 -27 -4 -53 -9 -56 -11 -4 -3 -22 -7 -41 -9 -19 -3
-45 -8 -59 -11 -14 -3 -43 -7 -65 -10 -22 -2 -49 -6 -60 -8 -11 -3 -40 -8 -65
-12 -25 -3 -58 -9 -75 -12 -16 -2 -46 -6 -65 -8 -19 -1 -57 -5 -85 -8 -107
-12 -185 -18 -320 -22 -307 -11 -415 -15 -532 -20 l-123 -5 23 48 c12 26 25
49 28 52 16 12 96 248 104 305 21 147 16 179 -33 207 -38 21 -121 22 -154 1z
m-1908 -441 c25 -15 54 -32 65 -39 83 -49 251 -135 330 -168 95 -39 99 -45 29
-46 -78 -2 -179 -6 -179 -9 0 -1 -34 -3 -75 -4 -41 -2 -130 -7 -197 -11 -138
-8 -151 -4 -234 73 -99 91 -103 148 -14 188 30 14 66 27 80 28 14 1 27 5 30 8
3 3 32 6 63 6 44 0 67 -6 102 -26z"/>
<path d="M8089 4937 c-2 -3 -42 -7 -89 -11 -90 -7 -120 -10 -215 -28 -33 -6
-69 -12 -80 -13 -11 -1 -27 -5 -35 -7 -8 -3 -58 -16 -110 -28 -52 -13 -99 -26
-105 -29 -5 -3 -14 -6 -20 -7 -5 -1 -73 -20 -150 -42 -275 -79 -335 -90 -507
-97 -121 -5 -132 2 -75 50 l32 27 -35 -5 c-19 -4 -47 -9 -62 -12 -16 -3 -38
-7 -50 -9 -109 -20 -310 -108 -415 -182 -35 -24 -63 -40 -63 -35 0 32 162 231
188 231 6 0 12 4 14 8 4 11 110 82 123 82 5 0 21 9 35 20 l25 19 -54 -4 c-127
-10 -300 -74 -407 -150 -53 -38 -62 -38 -43 -3 7 12 14 29 15 36 1 7 12 33 23
58 37 78 29 81 -54 19 -70 -52 -176 -156 -208 -202 -12 -18 -25 -33 -28 -33
-16 0 -31 64 -35 156 -2 56 -7 112 -12 123 -7 19 -11 18 -67 -26 -79 -62 -133
-120 -144 -157 -5 -17 -12 -63 -14 -102 -5 -69 -32 -175 -52 -203 -24 -32 -93
-101 -102 -101 -6 0 -26 34 -44 75 -40 88 -35 91 -111 -60 -58 -115 -55 -112
-68 -99 -10 10 -17 43 -25 119 -4 28 -8 68 -11 89 -2 22 -8 44 -12 48 -5 5
-28 -49 -51 -119 -24 -71 -58 -170 -77 -220 -19 -51 -50 -137 -70 -190 -62
-171 -61 -169 -113 -184 -25 -8 -49 -12 -53 -11 -5 1 -8 -2 -8 -6 0 -5 -6 -9
-12 -9 -14 -1 -319 -105 -523 -178 -71 -26 -134 -48 -140 -49 -5 -2 -19 -6
-30 -11 -11 -4 -47 -18 -80 -30 -305 -115 -403 -153 -485 -187 -52 -22 -133
-56 -180 -75 -97 -40 -109 -45 -240 -103 -225 -100 -285 -131 -271 -140 8 -4
26 -4 40 1 14 4 40 10 58 13 17 2 35 6 40 9 4 3 30 8 57 11 27 4 52 9 56 11
10 6 143 24 230 30 94 6 273 79 435 175 44 26 139 71 210 100 72 28 150 60
175 70 46 19 76 29 85 30 3 0 19 7 35 15 31 16 446 172 465 175 3 1 20 7 39
15 31 13 44 13 108 -1 40 -8 82 -17 93 -19 30 -5 228 -62 261 -76 16 -6 38
-15 49 -19 172 -67 316 -140 449 -226 54 -36 100 -63 103 -61 2 3 7 29 10 59
5 50 -5 125 -23 171 -6 17 -2 18 52 12 118 -12 150 -16 207 -26 32 -6 70 -12
85 -14 15 -2 38 -7 52 -10 14 -3 39 -8 55 -10 17 -3 44 -10 60 -15 17 -5 44
-12 60 -15 17 -2 62 -14 100 -25 39 -12 77 -23 85 -25 8 -2 28 -8 43 -14 16
-6 32 -9 37 -6 11 7 -38 106 -64 128 -11 10 -33 29 -48 43 -15 13 -32 24 -37
24 -5 0 -11 3 -13 8 -3 8 -90 47 -126 57 -41 12 -19 14 33 4 28 -6 64 -12 80
-14 17 -3 54 -11 83 -19 28 -8 52 -12 52 -9 0 3 6 0 13 -6 8 -6 16 -9 18 -6 3
2 22 0 44 -6 65 -15 189 -42 205 -44 8 -1 42 -8 75 -15 33 -7 65 -13 70 -14 6
-1 19 -5 30 -9 11 -3 36 -8 55 -11 19 -2 48 -8 65 -12 l29 -7 -17 27 c-41 61
-134 154 -200 198 l-42 29 35 -6 c19 -3 51 -10 70 -15 19 -5 52 -11 74 -14 21
-4 41 -8 45 -10 3 -2 29 -6 56 -10 48 -6 66 -8 145 -22 19 -3 62 -8 95 -10 33
-3 85 -7 115 -10 95 -8 330 -11 330 -4 0 9 -155 110 -169 110 -6 0 -19 4 -29
9 -41 21 -95 41 -132 48 -37 7 -37 13 1 14 19 0 52 2 74 4 22 2 74 6 115 9
114 9 167 15 260 31 47 7 103 16 125 20 22 3 105 17 185 31 80 14 161 28 180
30 19 2 58 8 85 14 57 10 98 16 170 25 28 3 66 7 85 10 184 25 535 25 650 0
14 -3 37 -6 53 -7 15 -1 27 -6 27 -11 0 -4 5 -5 10 -2 6 4 43 -3 83 -15 40
-12 79 -24 87 -26 8 -2 72 -21 142 -43 135 -42 164 -48 270 -57 107 -10 168
21 173 88 3 44 -10 78 -66 174 -153 259 -390 488 -684 659 -123 72 -418 193
-538 220 -12 3 -40 9 -62 14 -113 26 -227 46 -325 57 -51 6 -465 15 -471 11z"/>
<path d="M716 3031 c-11 -4 -20 -15 -22 -24 -4 -30 12 -36 181 -72 110 -22
174 -32 239 -34 22 0 36 -4 32 -8 -4 -5 -52 -6 -107 -5 -82 3 -99 1 -99 -11 0
-20 30 -25 123 -22 43 1 80 -2 83 -6 7 -12 -57 -31 -151 -43 -27 -4 -63 -9
-80 -12 -16 -3 -52 -7 -80 -9 -27 -2 -68 -6 -90 -9 -22 -3 -67 -8 -100 -11
-71 -6 -152 -23 -180 -38 -11 -6 -23 -11 -27 -12 -4 0 -14 -9 -21 -19 -71 -96
351 -74 628 33 44 17 96 34 115 37 32 5 36 3 46 -25 11 -29 14 -30 60 -27 27
2 76 13 109 25 90 32 95 30 153 -44 21 -26 30 -30 81 -32 37 -1 65 3 77 12 18
13 18 14 -3 34 -12 12 -26 21 -31 21 -6 0 -17 12 -27 26 -27 42 -8 54 88 49
73 -3 106 -7 212 -30 17 -3 40 -8 52 -10 13 -2 60 -11 105 -20 45 -10 108 -18
138 -19 31 -2 61 -5 67 -9 5 -4 13 -4 16 0 4 3 25 7 47 9 48 5 115 36 123 58
8 20 -11 30 -93 50 -103 25 -140 28 -415 31 -345 5 -435 12 -435 36 0 6 53 9
123 8 126 -1 196 10 216 35 10 12 8 17 -9 26 -12 6 -34 14 -48 17 -48 9 -196
6 -252 -5 -98 -20 -123 -23 -231 -29 -74 -4 -113 -2 -129 7 -18 10 -21 9 -15
-1 5 -8 4 -10 -4 -5 -16 10 -177 55 -221 62 -19 3 -41 7 -49 10 -26 9 -176 13
-195 5z"/>
<path d="M2015 2985 c-5 -2 -23 -6 -38 -9 -44 -10 -20 -27 34 -25 58 3 81 14
59 29 -15 10 -36 12 -55 5z"/>
<path d="M837 2883 c-14 -13 -6 -23 17 -23 30 0 42 15 20 24 -20 8 -29 8 -37
-1z"/>
</g>
</svg>
